HIERARCHY
ROOT SpineBase
{
  OFFSET 0.000000 0.000000 0.000000
  CHANNELS 6 Xposition Yposition Zposition Zrotation Xrotation Yrotation
  JOINT SpineMid
  {
    OFFSET -0.000000 27.800871 0.000000
    CHANNELS 3 Zrotation Xrotation Yrotation
    JOINT SpineShoulder
    {
      OFFSET 0.366474 20.627438 -0.424927
      CHANNELS 3 Zrotation Xrotation Yrotation
      JOINT Neck
      {
        OFFSET 0.144750 6.846130 -0.379252
        CHANNELS 3 Zrotation Xrotation Yrotation
        JOINT Head
        {
          OFFSET 0.426748 13.154700 -0.648784
          CHANNELS 3 Zrotation Xrotation Yrotation
          End Site
          {
            OFFSET 0 0 0
          }
        }
      }
      JOINT ShoulderLeft
      {
        OFFSET -12.459199 2.050280 -4.377519
        CHANNELS 3 Zrotation Xrotation Yrotation
        JOINT ElbowLeft
        {
          OFFSET -4.222422 -20.103976 0.534121
          CHANNELS 3 Zrotation Xrotation Yrotation
          JOINT WristLeft
          {
            OFFSET 10.941097 -11.575971 -13.907906
            CHANNELS 3 Zrotation Xrotation Yrotation
            JOINT HandLeft
            {
              OFFSET -1.563338 -3.745576 3.057080
              CHANNELS 3 Zrotation Xrotation Yrotation
              JOINT HandTipLeft
              {
                OFFSET -1.235421 -5.508674 -4.625906
                CHANNELS 3 Zrotation Xrotation Yrotation
                End Site
                {
                  OFFSET 0 0 0
                }
              }
              JOINT ThumbLeft
              {
                OFFSET 5.099412 -1.226255 1.809532
                CHANNELS 3 Zrotation Xrotation Yrotation
                End Site
                {
                  OFFSET 0 0 0
                }
              }
            }
          }
        }
      }
      JOINT ShoulderRight
      {
        OFFSET 10.643867 -1.698335 2.404428
        CHANNELS 3 Zrotation Xrotation Yrotation
        JOINT ElbowRight
        {
          OFFSET -4.496953 -25.873920 -10.928538
          CHANNELS 3 Zrotation Xrotation Yrotation
          JOINT WristRight
          {
            OFFSET 2.179080 -21.720696 1.789229
            CHANNELS 3 Zrotation Xrotation Yrotation
            JOINT HandRight
            {
              OFFSET -1.125480 -4.692535 1.586501
              CHANNELS 3 Zrotation Xrotation Yrotation
              JOINT HandTipRight
              {
                OFFSET -0.795745 -4.026721 -0.566647
                CHANNELS 3 Zrotation Xrotation Yrotation
                End Site
                {
                  OFFSET 0 0 0
                }
              }
              JOINT ThumbRight
              {
                OFFSET 1.994066 -0.747692 -2.635633
                CHANNELS 3 Zrotation Xrotation Yrotation
                End Site
                {
                  OFFSET 0 0 0
                }
              }
            }
          }
        }
      }
    }
  }
  JOINT HipLeft
  {
    OFFSET -6.799197 1.067677 -4.600349
    CHANNELS 3 Zrotation Xrotation Yrotation
    JOINT KneeLeft
    {
      OFFSET -1.348664 -26.012582 1.366229
      CHANNELS 3 Zrotation Xrotation Yrotation
      JOINT AnkleLeft
      {
        OFFSET -20.314416 -32.820501 0.792649
        CHANNELS 3 Zrotation Xrotation Yrotation
        JOINT FootLeft
        {
          OFFSET 0.169537 -4.836970 -7.041066
          CHANNELS 3 Zrotation Xrotation Yrotation
          End Site
          {
            OFFSET 0 0 0
          }
        }
      }
    }
  }
  JOINT HipRight
  {
    OFFSET 5.282768 0.464931 -1.339133
    CHANNELS 3 Zrotation Xrotation Yrotation
    JOINT KneeRight
    {
      OFFSET -14.949323 -32.767524 1.199463
      CHANNELS 3 Zrotation Xrotation Yrotation
      JOINT AnkleRight
      {
        OFFSET -4.833214 -32.758040 7.770183
        CHANNELS 3 Zrotation Xrotation Yrotation
        JOINT FootRight
        {
          OFFSET 1.320038 -3.646936 -11.688141
          CHANNELS 3 Zrotation Xrotation Yrotation
          End Site
          {
            OFFSET 0 0 0
          }
        }
      }
    }
  }
}
MOTION
Frames: 12
Frame Time: 0.033333
102.323189 68.922201 385.409604 0.000000 0.000000 -15.105537 -0.000000 0.000000 15.105537 -0.000000 0.000000 0.000000 -0.000000 0.000000 0.000000 0.000000 0.000000 0.000000 -0.000000 0.000000 0.000000 -0.000000 0.000000 0.000000 -0.000000 0.000000 0.000000 -0.000000 0.000000 0.000000 0.000000 0.000000 0.000000 0.000000 0.000000 0.000000 -0.000000 0.000000 0.000000 -0.000000 0.000000 0.000000 -0.000000 0.000000 0.000000 -0.000000 0.000000 0.000000 0.000000 0.000000 0.000000 0.000000 0.000000 0.000000 -0.000000 0.000000 15.105537 -0.000000 0.000000 0.000000 -0.000000 0.000000 0.000000 0.000000 0.000000 0.000000 -0.000000 0.000000 15.105537 -0.000000 0.000000 0.000000 -0.000000 0.000000 0.000000 0.000000 0.000000 0.000000
102.483267 68.856950 385.436126 0.088249 -0.037983 -15.379239 -0.095162 0.013219 15.379279 -0.000000 0.000000 0.000000 -0.000000 0.000000 0.000000 0.000000 0.000000 0.000000 -0.000000 0.000000 0.000000 -0.000000 0.000000 0.000000 0.621674 0.762230 0.186560 -0.171486 -1.528601 -0.397418 0.000000 0.000000 0.000000 0.000000 0.000000 0.000000 2.148930 -1.188070 -0.684203 2.883984 -0.808985 0.921623 -12.014452 2.183103 -2.226005 6.992173 0.152364 2.356332 0.000000 0.000000 0.000000 0.000000 0.000000 0.000000 -0.095162 0.013219 15.379279 -0.000000 0.000000 0.000000 1.161480 5.769487 -1.440665 0.000000 0.000000 0.000000 -0.095162 0.013219 15.379279 -1.020262 0.176832 -0.266275 1.021077 -0.172061 0.269382 0.000000 0.000000 0.000000
102.617974 68.808226 385.447962 0.166539 -0.063944 -15.598413 -0.177599 0.016808 15.598532 0.780987 -0.543537 0.058455 -1.668681 1.634400 -0.113358 0.000000 0.000000 0.000000 -0.780467 0.544283 -0.051043 -0.570409 -0.559284 0.155568 1.825669 1.979504 0.241961 -0.303218 -2.844256 -0.910251 0.000000 0.000000 0.000000 0.000000 0.000000 0.000000 2.645103 -1.491239 -1.131374 4.500960 -1.089871 1.434272 -19.350519 3.613383 -3.304516 11.433949 0.355908 3.852735 0.000000 0.000000 0.000000 0.000000 0.000000 0.000000 0.961820 0.059496 15.669799 -1.119150 -0.723163 0.542787 2.242438 10.821881 -3.240510 0.000000 0.000000 0.000000 0.915855 0.158268 15.709266 -2.995889 0.505913 -0.601517 1.908528 -0.325726 0.507129 0.000000 0.000000 0.000000
102.727310 68.776030 385.445112 0.234952 -0.077927 -15.765218 0.588853 -0.151686 15.788915 0.344814 -0.366107 0.056968 -2.402019 2.285530 -0.149271 0.000000 0.000000 0.000000 -1.104436 0.751326 -0.069839 -0.684006 -0.678295 0.178938 2.581196 2.666583 0.479379 -0.397359 -3.960386 -1.541541 0.000000 0.000000 0.000000 0.000000 0.000000 0.000000 2.748084 -1.772499 -1.244788 4.755990 -0.901615 1.528393 -22.317332 4.138735 -3.846574 13.155832 -0.514476 4.902505 0.000000 0.000000 0.000000 0.000000 0.000000 0.000000 1.349346 0.053422 15.866250 -1.546802 -0.958950 0.742008 3.093801 14.069170 -4.413328 0.000000 0.000000 0.000000 1.284476 0.178988 15.935705 -4.169930 0.761245 -0.846335 2.658135 -0.462039 0.711257 0.000000 0.000000 0.000000
102.811275 68.760362 385.427576 0.293554 -0.079957 -15.881360 0.724150 -0.194417 15.910896 0.449367 -0.448294 0.072131 -3.069458 2.826615 -0.175170 0.000000 0.000000 0.000000 -1.908491 -0.003707 0.098264 -0.160561 0.230505 -0.005215 3.235930 3.162270 0.804155 -0.454598 -4.888040 -2.296604 0.000000 0.000000 0.000000 0.000000 0.000000 0.000000 2.051815 -1.735332 -1.069313 3.598401 -0.242170 1.224557 -21.163003 3.725991 -4.126912 12.257116 -0.791655 5.277529 0.000000 0.000000 0.000000 0.000000 0.000000 0.000000 1.673540 0.020975 16.008450 -1.886368 -1.111014 0.892694 3.771905 16.370012 -5.341353 0.000000 0.000000 0.000000 1.593857 0.158501 16.115088 -5.123696 1.014857 -1.054201 3.266613 -0.581977 0.880135 0.000000 0.000000 0.000000
102.869869 68.761222 385.395354 0.342395 -0.070041 -15.948117 0.829093 -0.234383 15.982376 0.549058 -0.510994 0.085124 -3.671823 3.258114 -0.193539 0.000000 0.000000 0.000000 -2.658517 -0.267306 0.156103 0.468105 0.709843 -0.124937 3.793891 3.472648 1.223781 -0.474259 -5.636189 -3.183071 0.000000 0.000000 0.000000 0.000000 0.000000 0.000000 0.547425 -1.384216 -0.595039 0.988408 0.962819 0.571126 -16.003302 2.323307 -4.103556 9.326646 -1.123311 5.107688 0.000000 0.000000 0.000000 0.000000 0.000000 0.000000 1.933690 -0.039210 16.097885 -2.137749 -1.179535 0.994523 4.286405 17.932670 -6.050481 0.000000 0.000000 0.000000 1.844060 0.095535 16.249099 -5.854998 1.264705 -1.225893 3.731501 -0.686391 1.012456 0.000000 0.000000 0.000000
102.853243 68.829524 385.345089 0.343382 -0.035298 -15.846164 0.921257 -0.292627 15.883758 0.719885 -0.549859 0.098819 -4.409647 3.627790 -0.210287 0.000000 0.000000 0.000000 -3.521319 -0.717563 0.238874 1.661881 1.832166 -0.368539 4.520403 2.945930 2.436155 -1.722176 -4.417738 -4.685186 0.000000 0.000000 0.000000 0.000000 0.000000 0.000000 -2.464106 -0.491057 0.428271 -3.667431 2.962439 -0.593487 -4.337823 -1.383211 -2.787431 3.424308 -2.593034 4.024363 0.000000 0.000000 0.000000 0.000000 0.000000 0.000000 2.111211 0.164380 15.994594 -2.206319 -1.571828 1.124470 5.227924 21.084140 -7.362104 0.000000 0.000000 0.000000 2.153539 -0.020350 16.233042 -6.414179 1.535155 -1.369085 4.028790 -0.776499 1.101813 0.000000 0.000000 0.000000
102.858687 68.881079 385.257778 0.391474 0.008833 -15.803100 0.953427 -0.354945 15.843640 0.858336 -0.612289 0.111290 -5.041672 4.040934 -0.220685 0.000000 0.000000 0.000000 -4.671394 -1.191631 0.316081 2.618104 2.384994 -0.488541 5.212807 3.583241 2.718894 -0.700792 -6.597679 -6.114088 0.000000 0.000000 0.000000 0.000000 0.000000 0.000000 -5.982975 0.515382 1.709656 -9.067732 5.928671 -1.637005 9.309294 -4.878062 -0.482950 -2.749802 -3.532231 2.716308 0.000000 0.000000 0.000000 0.000000 0.000000 0.000000 2.067232 -0.294137 15.975779 -2.252028 -1.003094 0.996761 4.636859 18.540286 -6.475857 0.000000 0.000000 0.000000 2.287209 -0.218790 16.284139 -6.706174 1.803839 -1.484831 4.203674 -0.845157 1.157476 0.000000 0.000000 0.000000
102.846552 68.910308 385.168525 0.398577 0.065853 -15.744309 0.985707 -0.380974 15.785776 0.901497 -0.604074 0.114745 -5.387579 4.134136 -0.227227 0.000000 0.000000 0.000000 -5.462657 -1.682635 0.374501 3.341608 2.835053 -0.593495 5.699745 3.819722 3.014817 -0.484583 -7.347856 -6.930403 0.000000 0.000000 0.000000 0.000000 0.000000 0.000000 -9.634328 1.503905 3.126350 -14.024013 9.106409 -2.374657 22.840327 -6.870815 2.594389 -10.387788 -1.287627 1.148511 0.000000 0.000000 0.000000 0.000000 0.000000 0.000000 2.147369 -0.475536 15.931099 -2.136500 -0.765061 0.932674 4.590550 18.399284 -6.580200 0.000000 0.000000 0.000000 2.192379 -0.439007 16.283789 -6.398093 1.937200 -1.493028 4.040804 -0.854115 1.118835 0.000000 0.000000 0.000000
102.807568 68.925314 385.074117 0.348070 0.133663 -15.661918 0.977786 -0.388873 15.701119 0.861921 -0.558573 0.108654 -5.193782 3.945472 -0.227764 0.000000 0.000000 0.000000 -6.025192 -2.033226 0.392976 4.670083 3.557220 -1.004876 4.848034 3.576614 3.125688 0.473054 -7.825016 -7.215250 0.000000 0.000000 0.000000 0.000000 0.000000 0.000000 -12.912747 2.321036 4.495444 -18.017306 11.676086 -2.908258 37.052187 -7.664518 7.202264 -16.711798 0.479242 -1.325260 0.000000 0.000000 0.000000 0.000000 0.000000 0.000000 2.468058 -0.671474 15.877398 -2.248059 -0.530305 0.901174 4.629391 18.318731 -6.751741 0.000000 0.000000 0.000000 2.395717 -0.687716 16.315147 -6.469909 2.254405 -1.586437 4.040906 -0.935039 1.133515 0.000000 0.000000 0.000000
102.737709 68.943067 384.963849 0.239702 0.256819 -15.571238 1.015044 -0.386327 15.607269 0.804535 -0.482324 0.100183 -4.748517 3.379415 -0.225946 0.000000 0.000000 0.000000 -6.630580 -2.439044 0.393468 5.819418 4.083504 -1.261333 4.171125 3.566494 2.962572 1.317714 -6.783334 -7.553865 0.000000 0.000000 0.000000 0.000000 0.000000 0.000000 -15.535935 2.933843 5.603881 -19.871659 13.538444 -3.262776 45.334886 -8.355521 10.272110 -20.388893 0.585610 -2.450809 0.000000 0.000000 0.000000 0.000000 0.000000 0.000000 3.001868 -0.939719 15.831643 -2.498005 -0.219537 0.859146 4.693425 18.234357 -6.941675 0.000000 0.000000 0.000000 2.653100 -0.914666 16.310707 -6.508523 2.439820 -1.641985 4.228454 -1.113176 0.358601 0.000000 0.000000 0.000000
102.677566 68.896923 384.909505 0.140792 0.304403 -15.551467 1.044724 -0.319268 15.584080 0.752107 -0.380641 0.091783 -4.466225 2.879177 -0.224527 0.000000 0.000000 0.000000 -6.811551 -2.667637 0.373659 6.271369 4.219414 -1.363041 4.174346 3.863393 3.011616 1.483814 -6.692284 -7.896206 0.000000 0.000000 0.000000 0.000000 0.000000 0.000000 -17.190502 3.355760 6.291375 -20.334392 14.553591 -3.498213 48.533706 -8.851205 11.488460 -22.956187 3.576218 -2.777991 0.000000 0.000000 0.000000 0.000000 0.000000 0.000000 3.510329 -1.067933 15.851066 -2.792003 0.010332 0.829664 4.815093 18.145565 -7.186648 0.000000 0.000000 0.000000 2.701890 -0.987278 16.306100 -6.221054 2.374762 -1.597796 4.085964 -1.069244 0.025841 0.000000 0.000000 0.000000
